<?xml version="1.0" encoding="utf-8"?>
<!-- Generator: Adobe Illustrator 16.0.0, SVG Export Plug-In . SVG Version: 6.00 Build 0)  -->
<!DOCTYPE svg PUBLIC "-//W3C//DTD SVG 1.1//EN" "http://www.w3.org/Graphics/SVG/1.1/DTD/svg11.dtd">
<svg version="1.1" id="Layer_1" xmlns="http://www.w3.org/2000/svg" xmlns:xlink="http://www.w3.org/1999/xlink" x="0px" y="0px"
	 width="276px" height="166px" viewBox="0 0 276 166" enable-background="new 0 0 276 166" xml:space="preserve">
<g>
	<g>
		<path opacity="0.71" fill="#FD601D" d="M85.419,122.639c0,0,185.344-9.797,186.184-4.58c0.832,5.216,15.359,23.066-28.506,35.449
			c-59.732,16.859-196.721-10.094-198.563-18.344C42.683,126.915,85.419,122.639,85.419,122.639z"/>
		<path opacity="0.2" fill="#CE0E8E" d="M183.913,135.869c-6.092,8.424-15.123,12.722-32.313,16.073
			c-17.195,3.354-92.973-9.729-98.529-13.647c-5.557-3.917,5.043-11.097,5.043-11.097L183.913,135.869z"/>
		<g>
			
				<linearGradient id="SVGID_1_" gradientUnits="userSpaceOnUse" x1="-1773.1572" y1="-28.5757" x2="-1773.2339" y2="-8.5545" gradientTransform="matrix(-0.9908 0.1356 0.1356 0.9908 -1556.1825 336.7741)">
				<stop  offset="0" style="stop-color:#FFC81B"/>
				<stop  offset="0.285" style="stop-color:#FFC41B"/>
				<stop  offset="0.5787" style="stop-color:#FFB71D"/>
				<stop  offset="0.8754" style="stop-color:#FFA31F"/>
				<stop  offset="1" style="stop-color:#FF9820"/>
			</linearGradient>
			<polygon fill="url(#SVGID_1_)" points="203.813,93.278 195.376,68.813 194.624,77.329 			"/>
			
				<linearGradient id="SVGID_2_" gradientUnits="userSpaceOnUse" x1="-1763.0977" y1="-13.8584" x2="-1763.2183" y2="17.6258" gradientTransform="matrix(-0.9908 0.1356 0.1356 0.9908 -1556.1825 336.7741)">
				<stop  offset="0" style="stop-color:#FFC81B"/>
				<stop  offset="0.285" style="stop-color:#FFC41B"/>
				<stop  offset="0.5787" style="stop-color:#FFB71D"/>
				<stop  offset="0.8754" style="stop-color:#FFA31F"/>
				<stop  offset="1" style="stop-color:#FF9820"/>
			</linearGradient>
			<path fill="url(#SVGID_2_)" d="M195.528,83.955c0,0,6.523,20.761,6.256,20.088c-0.27-0.676-5.871-12.152-5.871-12.152
				l-1.787,7.41l2.82,9.075l-12.387,17.463L195.528,83.955z"/>
			<path fill="#FFC81B" d="M15.7,121.224c0.01,0.015,0.018,0.036,0.039,0.05c2.68,3.063,5.697,5.75,9.016,8.074
				c7.105,4.986,15.568,8.3,24.994,10.096c1.313,0.25,2.615,0.445,3.92,0.576c1.316,0.146,2.639,0.23,3.951,0.266l3.814,0.467
				l11.076,1.357l2.582,0.323l5.445,0.669l27.898,3.421l0.342,0.044l12.813,1.572h0.014l1.504,0.182l8.898,1.1l32.986-24.365
				l-0.51-2.63v-0.007l-0.969-4.96l0,0l-6.896-35.419l-1.105-5.679l41.537-2.511l-11.258-33.816l-20.543-16.619L81.983,9.993
				L80.87,9.852L69.72,8.475L69.495,8.65C39.696,5.844,4.458,34.313,1.901,69.274C0.198,92.54,5.528,109.594,15.7,121.224z"/>
			
				<linearGradient id="SVGID_3_" gradientUnits="userSpaceOnUse" x1="-1592.6699" y1="-308.4341" x2="-1593.0852" y2="-200.0313" gradientTransform="matrix(-1 -0.0025 -0.0025 1 -1503.6787 314.04)">
				<stop  offset="0" style="stop-color:#FFAA1B"/>
				<stop  offset="0.2736" style="stop-color:#FFA61B"/>
				<stop  offset="0.5555" style="stop-color:#FF991D"/>
				<stop  offset="0.8403" style="stop-color:#FF851F"/>
				<stop  offset="1" style="stop-color:#FF7620"/>
			</linearGradient>
			<path fill="url(#SVGID_3_)" d="M8.407,94.908c2.025,11.493,6.506,20.702,12.893,27.836c0.01,0.015,0.025,0.026,0.039,0.045
				c2.686,2.99,5.705,5.607,9.021,7.875c7.1,4.86,15.57,8.091,25.002,9.846c1.299,0.243,2.609,0.425,3.908,0.56
				c1.32,0.142,2.637,0.227,3.955,0.262l3.816,0.453l11.072,1.328l2.582,0.314l5.447,0.647l27.898,3.341l0.344,0.035l12.811,1.541
				h0.012l1.502,0.177l8.9,1.067l32.988-23.755l-0.518-2.56v-0.006l-0.963-4.84l0,0l-4.293-21.498l-2.605-13.039l-1.105-5.534
				l-6.615-33.096l17.953-14.035L149.71,21.95l-0.037-0.187l-62.09-7.48l-1.117-0.134l-11.152-1.342l-0.221,0.169
				C45.296,10.241,10.06,37.995,7.501,72.081C6.878,80.512,7.212,88.109,8.407,94.908z"/>
			<path opacity="0.2" fill="#CE0E8E" d="M16.847,114.826c0.725,3.046,3.289,4.883,4.385,7.684c0.004,0.005,0.021,0.089,0.068,0.234
				c0.01,0.015,0.025,0.026,0.039,0.045c2.686,2.99,5.705,5.607,9.021,7.875c7.1,4.86,15.57,8.091,25.002,9.846
				c1.299,0.243,2.609,0.425,3.908,0.56c-10.887-7.992-27.902-19.826-28.836-22.203c-1.094-2.799-6.088-11.927-6.813-14.971
				c-2.094-8.801-1.121-10.102-1.695-20.541c-1.92-34.742,9.242-48.053,42.588-60.189c-21.906,6.289-46.107,34.344-50.756,64.033
				C12.134,97.53,14.755,106.027,16.847,114.826z"/>
			<path opacity="0.2" fill="#CE0E8E" d="M66.101,114.649c0.725,3.043,1.648,5.975,2.744,8.777c3.066,7.849,7.01,14.57,11.852,20
				l51.311,5.994c-6.676-6.018-48.254-17.497-51.818-26.635c-1.092-2.803-6.164-5.451-6.887-8.499
				c-2.088-8.802-4.707-25.362-3.09-35.698c4.336-27.697,7.23-49.621,39.16-55.316C87.47,29.563,69.808,56.094,65.159,85.786
				C63.548,96.116,64.007,105.847,66.101,114.649z"/>
			<path opacity="0.2" fill="#CE0E8E" d="M18.231,88.001c-0.066,0.008-0.113-0.01-0.156-0.017c-0.066-0.025-0.285-0.132-0.258-0.477
				l0.652,0.051c-0.008-0.037-0.037-0.119-0.125-0.176c-0.088-0.055-0.184-0.035-0.219-0.021c0.502-0.256,3.254-4.128,5.633-7.734
				l0.545,0.363C19.665,87.02,18.604,87.94,18.231,88.001z M18.144,87.535l0.326,0.034c0,0,0-0.005,0-0.01L18.144,87.535z"/>
			<polygon opacity="0.2" fill="#CE0E8E" points="22.116,107.695 21.579,103.757 41.015,88.268 41.743,89.709 			"/>
			<polygon opacity="0.2" fill="#CE0E8E" points="20.272,115.338 21.329,109.594 37.423,101.223 38.153,102.661 			"/>
			<polygon opacity="0.2" fill="#CE0E8E" points="77.497,136.897 81.155,143.477 59.163,129.781 60.429,128.843 			"/>
			<polygon opacity="0.2" fill="#CE0E8E" points="73.956,129.594 74.188,134.466 58.175,111.507 59.435,110.573 			"/>
			<path fill="#FB5D1E" d="M179.536,106.961c-0.328,0.953-0.137,0.6,0.895-1.912c0.35-0.854,0.645-1.838,0.879-2.921
				c-0.828,2.21-1.486,4.001-1.773,4.825C179.536,106.958,179.536,106.958,179.536,106.961z"/>
			
				<radialGradient id="SVGID_4_" cx="-1719.9189" cy="-10.2944" r="71.8024" gradientTransform="matrix(-0.9908 0.1356 0.1356 0.9908 -1556.1825 336.7741)" gradientUnits="userSpaceOnUse">
				<stop  offset="0" style="stop-color:#FD601D"/>
				<stop  offset="0.5234" style="stop-color:#FD621D"/>
				<stop  offset="0.7119" style="stop-color:#FD691C"/>
				<stop  offset="0.8463" style="stop-color:#FE741B"/>
				<stop  offset="0.9541" style="stop-color:#FF851A"/>
				<stop  offset="1" style="stop-color:#FF8F19"/>
			</radialGradient>
			<path fill="url(#SVGID_4_)" d="M82.474,108.083c0.809,2.86,1.838,5.613,3.066,8.238c8.041,17.295,24.564,29.533,43.734,33.088
				c5.787,1.081,11.563,1.094,17.162,0.171c3.053-0.507,6.053-1.286,8.975-2.331c6.1-2.17,11.861-5.465,17.059-9.711
				c8.023-6.541,14.678-15.342,19.125-25.707c2.107-4.887,3.715-10.133,4.742-15.653c2.33-12.542,1.334-24.82-2.299-35.681
				l-0.463-1.348c-0.924-2.572-1.998-5.065-3.215-7.461l-1.402-2.604c-7.828-13.77-21.021-20.894-36.594-23.783
				c-8.305-1.547-16.871-0.721-25.061,2.012l2.25,7.143l-4.223-6.448c-2.916,1.081-5.777,2.407-8.559,3.952l7.648,11.753
				l-0.172,1.181L112.29,34.69C97.071,44.784,85.024,61.538,81.409,80.987C79.604,90.688,80.13,99.82,82.474,108.083z"/>
			<path opacity="0.2" fill="#CE0E8E" d="M96.495,111.961c0.563,3.911,16.111,16.328,17.777,17.42
				c3.33,2.205,7.014,4.938,10.824,5.846c3.813,0.908,20.191,3.688,23.998,2.941c3.799-0.732,7.533-1.883,11.078-3.491
				c3.543-1.61,6.893-3.651,9.908-6.098c6.068-4.906,10.74-11.407,13.635-18.579c2.896-7.179,7.09-19.394,6.512-27.082
				c-0.563-7.681-6.836-14.811-11.098-21.25c-0.99-1.498-2.088-2.937-3.277-4.295l-0.004-0.014l-0.008-0.008
				c-1.342-1.533-2.801-2.969-4.371-4.275c-2.936-2.483-6.256-4.479-9.775-6.016c-7.029-3.061-14.479-6.762-22.035-6.426
				c-7.582,0.303-15.311,4.581-22.467,6.9c3.627-1.02,7.291-1.881,11.006-2.48c1.854-0.289,3.717-0.539,5.576-0.719
				c1.871-0.164,3.736-0.266,5.617-0.286c3.742-0.05,7.482,0.249,11.146,0.935c3.654,0.688,7.236,1.777,10.596,3.352
				c1.598,0.73,3.137,1.576,4.615,2.525l0.236,0.15c4.643,3.016,8.619,7.014,11.566,11.682c1.965,3.107,3.492,6.488,4.582,10.008
				c0.543,1.777,0.98,3.6,1.297,5.43c0.33,1.787,0.537,3.586,0.652,5.396c0.01,0.124,0.014,0.241,0.014,0.365
				c0.27,5.049-0.266,10.139-1.576,15.017c-0.549,2.101-1.254,4.147-2.09,6.14c-0.281,0.662-0.57,1.293-0.895,1.908c0,0,0,0,0,0.004
				c-2.973,5.758-7.721,10.02-12.869,14.109c-3.127,2.502-6.381,4.919-9.873,6.809c-1.473,0.8-2.979,1.498-4.543,2.074
				c-1.482,0.545-3.012,0.978-4.588,1.267c-1,0.187-1.994,0.33-3.008,0.466c-2.629,0.322-5.275,0.471-7.934,0.443
				c-3.67-0.029-6.432-2.627-9.949-3.475c-2.021-0.492-4.293-0.408-6.416-0.629c-1.566-0.16-3.053-0.482-4.303-1.32
				c-1.477-0.986-2.84-2.129-4.063-3.386c-1.211-1.278-2.283-2.681-3.199-4.193c-1.824-3.017-2.98-6.455-3.5-9.993
				c-0.529-3.545-0.455-7.191,0.105-10.77c0.561-3.581,1.588-7.098,3.039-10.429c1.455-3.329,3.297-6.501,5.551-9.335
				c2.248-2.832,4.91-5.348,7.93-7.264c3.018-1.92,6.406-3.23,9.93-3.651c1.762-0.21,3.547-0.224,5.311-0.013
				c0.887,0.1,1.77,0.249,2.635,0.455c0.883,0.204,1.779,0.443,2.652,0.701c1.422,0.424,2.82,0.933,4.154,1.521l0.01,0.005
				c1.965,0.864,3.82,1.933,5.449,3.267c1.365,1.129,2.551,2.446,3.455,3.938c0.656,1.078,1.152,2.242,1.482,3.465
				c0.127,0.469,0.227,0.938,0.297,1.417c0.078,0.44,0.125,0.896,0.146,1.341c0.201,3.074-0.561,6.229-1.871,9.1
				c-0.752,1.648-1.693,3.234-2.779,4.713c-1.078,1.471-2.291,2.852-3.639,4.1c-0.652,0.597-1.326,1.162-2.037,1.692l-0.033,0.019
				c-0.746,0.566-1.533,1.068-2.354,1.535c-0.293,0.156-0.59,0.249-0.898,0.262h-0.004c-1.373,0.111-2.865-0.889-4.324-0.677
				c-0.742,0.112-1.408,1.696-2.119,2.153c-0.145,0.092-0.289,0.144-0.436,0.125c-0.061-0.014-0.102-0.054-0.127-0.135
				c-0.16-0.465,0.285-2.031-0.092-2.146c-0.416-0.124-1.953,1.682-2.385,1.526c-1.734-0.681-3.438-1.464-5.02-2.45
				c-1.57-0.969-3.047-2.154-4.086-3.705c-0.496-0.777-0.861-1.646-0.994-2.569c-0.105-0.92,0.008-1.887,0.434-2.726
				c-0.469,0.819-0.635,1.788-0.564,2.74c0.076,0.95,0.412,1.877,0.889,2.707c0.486,0.824,1.104,1.564,1.783,2.237
				c0.695,0.661,1.449,1.253,2.232,1.782c0,0,0.021,0.01,0.045,0.033c0.369,0.252,0.768,0.498,1.152,0.73
				c0.037,0.02,0.07,0.045,0.102,0.063c1.203,0.715,2.459,1.33,3.73,1.891c0.43,0.184,0.854,0.381,1.328,0.55
				c0.465,0.161,0.951,0.286,1.439,0.366c0.973,0.176,1.969,0.188,2.945,0.084c1.734-0.201,3.396-0.743,4.963-1.479
				c0.195-0.093,0.389-0.191,0.58-0.281c0.561-0.29,1.338-0.484,2.199-0.653c0.832-0.172,1.74-0.318,2.57-0.508
				c0.996-0.226,1.9-0.521,2.449-0.988c2.926-2.526,2.926-6.73,4.652-10.236c0.855-1.75,1.52-3.604,1.924-5.541
				c0.262-1.273,2.451-2.792,3.838-4.254c0.723-0.756,1.223-1.496,1.137-2.18c-0.264-1.999-5.631-3.473-6.639-5.227
				c-0.451-0.779-0.967-1.525-1.545-2.221c-0.701-0.863-1.49-1.658-2.326-2.369c-3.047-2.605-5.707-7.095-9.385-8.283
				c-0.922-0.297-2.82,2.268-3.768,2.021c-0.957-0.238,1.152-2.18,0.16-2.312c-1.961-0.264-7.051,1.452-9.039,1.677
				c-3.291,0.354-6.484,1.403-9.4,2.936c-0.59,0.311-1.178,0.654-1.746,0.998c-0.434,0.278-0.93,0.539-1.469,0.817
				c-3.451,1.721-8.727,3.505-11.117,5.913c-0.152,0.148-0.287,0.302-0.412,0.453c-0.391,0.479-0.738,0.978-1.064,1.48
				c-3.703,5.865-2.895,13.227-4.049,20.318C101.647,101.727,95.929,108.059,96.495,111.961z"/>
			<g>
				
					<linearGradient id="SVGID_5_" gradientUnits="userSpaceOnUse" x1="-1607.5459" y1="-266.8145" x2="-1584.5674" y2="-266.8145" gradientTransform="matrix(-1 -0.0025 -0.0025 1 -1503.6787 314.04)">
					<stop  offset="0" style="stop-color:#FFC81B"/>
					<stop  offset="0.285" style="stop-color:#FFC41B"/>
					<stop  offset="0.5787" style="stop-color:#FFB71D"/>
					<stop  offset="0.8754" style="stop-color:#FFA31F"/>
					<stop  offset="1" style="stop-color:#FF9820"/>
				</linearGradient>
				<polygon fill="url(#SVGID_5_)" points="102.858,58.158 104.522,55.669 81.892,44.27 81.571,44.911 				"/>
				
					<linearGradient id="SVGID_6_" gradientUnits="userSpaceOnUse" x1="-1596.5654" y1="-254.7349" x2="-1586.4795" y2="-254.7349" gradientTransform="matrix(-1 -0.0025 -0.0025 1 -1503.6787 314.04)">
					<stop  offset="0" style="stop-color:#FFC81B"/>
					<stop  offset="0.285" style="stop-color:#FFC41B"/>
					<stop  offset="0.5787" style="stop-color:#FFB71D"/>
					<stop  offset="0.8754" style="stop-color:#FFA31F"/>
					<stop  offset="1" style="stop-color:#FF9820"/>
				</linearGradient>
				<polygon fill="url(#SVGID_6_)" points="93.206,65.094 93.522,63.691 83.753,61.473 83.438,62.875 				"/>
				
					<linearGradient id="SVGID_7_" gradientUnits="userSpaceOnUse" x1="-1588.0293" y1="-219.2959" x2="-1571.4141" y2="-219.2959" gradientTransform="matrix(-1 -0.0025 -0.0025 1 -1503.6787 314.04)">
					<stop  offset="0" style="stop-color:#FFC81B"/>
					<stop  offset="0.285" style="stop-color:#FFC41B"/>
					<stop  offset="0.5787" style="stop-color:#FFB71D"/>
					<stop  offset="0.8754" style="stop-color:#FFA31F"/>
					<stop  offset="1" style="stop-color:#FF9820"/>
				</linearGradient>
				<polygon fill="url(#SVGID_7_)" points="68.286,97.771 84.896,100.023 84.899,97.405 68.286,97.368 				"/>
				
					<linearGradient id="SVGID_8_" gradientUnits="userSpaceOnUse" x1="-1588.0811" y1="-213.9639" x2="-1581.335" y2="-213.9639" gradientTransform="matrix(-1 -0.0025 -0.0025 1 -1503.6787 314.04)">
					<stop  offset="0" style="stop-color:#FFC81B"/>
					<stop  offset="0.285" style="stop-color:#FFC41B"/>
					<stop  offset="0.5787" style="stop-color:#FFB71D"/>
					<stop  offset="0.8754" style="stop-color:#FFA31F"/>
					<stop  offset="1" style="stop-color:#FF9820"/>
				</linearGradient>
				<polygon fill="url(#SVGID_8_)" points="78.288,104.848 84.937,104.036 84.833,103.227 78.19,104.042 				"/>
				
					<linearGradient id="SVGID_9_" gradientUnits="userSpaceOnUse" x1="-1588.1465" y1="-211.0547" x2="-1581.2617" y2="-211.0547" gradientTransform="matrix(-1 -0.0025 -0.0025 1 -1503.6787 314.04)">
					<stop  offset="0" style="stop-color:#FFC81B"/>
					<stop  offset="0.285" style="stop-color:#FFC41B"/>
					<stop  offset="0.5787" style="stop-color:#FFB71D"/>
					<stop  offset="0.8754" style="stop-color:#FFA31F"/>
					<stop  offset="1" style="stop-color:#FF9820"/>
				</linearGradient>
				<polygon fill="url(#SVGID_9_)" points="78.349,108.368 84.997,106.302 84.759,105.526 78.108,107.586 				"/>
				<path fill="#FFC81B" d="M11.188,33.396l0.297-0.278c1.805,1.98,3.867,4.088,4.197,4.191c-0.021-0.002-0.084-0.002-0.133,0.04
					c-0.053,0.038-0.063,0.092-0.063,0.12l0.395-0.1c0.053,0.213-0.072,0.298-0.113,0.319c-0.02,0.011-0.051,0.025-0.086,0.025
					C15.44,37.714,14.704,37.247,11.188,33.396z M15.487,37.469c0,0,0,0,0,0.004l0.199-0.055L15.487,37.469z"/>
				<polygon fill="#FFC81B" points="12.101,44.612 12.415,43.657 1.741,40.074 1.437,41.031 				"/>
				<polygon fill="#FFC81B" points="15.55,52.202 15.866,51.249 5.198,47.663 4.882,48.62 				"/>
				<polygon fill="#FFC81B" points="76.233,12.038 78.96,1.039 76.438,0.715 73.71,11.718 				"/>
				<rect x="71.424" y="0.801" fill="#FFC81B" width="0.408" height="11.006"/>
				<polygon fill="#FFC81B" points="56.458,12.804 56.853,12.702 55.206,6.211 54.819,6.311 				"/>
			</g>
			<path opacity="0.36" fill="#CE0E8E" d="M181.31,102.128c0.379-0.999,0.783-2.091,1.211-3.219
				c1.346-4.991,1.873-10.209,1.563-15.382c-0.227-3.669-0.875-7.316-1.949-10.832c-1.09-3.514-2.617-6.895-4.582-10.002
				c-2.947-4.668-6.924-8.666-11.566-11.682l-0.236-0.15C178.628,61.643,184.104,89.233,181.31,102.128z"/>
			<path opacity="0.36" fill="#CE0E8E" d="M125.446,128.409c-7.498-0.832-19.594-17.679-20.49-22.832
				c-0.885-5.148,6.926-24.045,6.926-24.045s-12.791,16.615-5.357,32.723C113.966,130.355,125.446,128.409,125.446,128.409z"/>
			<path opacity="0.36" fill="#CE0E8E" d="M152.788,97.594c1.086-1.479,2.027-3.064,2.779-4.713c1.311-2.871,2.072-6.025,1.871-9.1
				c-0.021-0.445-0.068-0.9-0.146-1.341c-0.07-0.479-0.17-0.948-0.297-1.417c-0.33-1.223-0.826-2.387-1.482-3.465
				c-0.904-1.491-2.09-2.809-3.455-3.938c-1.629-1.334-3.484-2.402-5.449-3.267C153.194,73.5,158.813,89.012,152.788,97.594z"/>
			<path opacity="0.36" fill="#CE0E8E" d="M122.843,92.897c-0.014,5.207,3.141,9.541,7.318,10.465
				c-2.457-1.906-4.078-5.191-4.072-8.924c0.014-5.871,4.051-10.617,9.01-10.609c0.561,0,1.107,0.064,1.637,0.181
				c-1.404-1.079-3.08-1.714-4.879-1.718C126.89,82.277,122.856,87.025,122.843,92.897z"/>
			<path fill="#FFC81B" d="M115.626,17.663C102.101,19.034,81.81,32.089,81.81,32.089l-18.354-2.532l-5.908,2.88l2.443-4.868
				l-4.857-3.125c0,0-20.346,2.089-30.637,9.48c-10.289,7.389,3.033-9.547,17.045-15.669c14.014-6.126,24.254-9.083,33.467-7.993
				C84.224,11.357,115.626,17.663,115.626,17.663z"/>
			<path fill="#FFC81B" d="M153.683,22.737c10.342,2.828-35.031,3.928-35.031,3.928l-19.287,8.251l-1.941-2.017l3.512-3.426
				c0,0,10.23-8.879,17.514-10.051c7.285-1.172,9.018-1.063,9.27-1.269C127.968,17.942,147.673,21.091,153.683,22.737z"/>
		</g>
		<polygon fill="#FFBE1D" points="95.966,154.35 89.448,136.937 93.835,153.9 92.896,153.868 80.204,125.033 77.097,125.456 
			84.233,153.417 78.103,151.858 54.396,147.139 46.829,126.87 51.886,146.321 		"/>
	</g>
	<polygon fill="#FFBE1D" points="209.591,161.055 208.118,143.301 207.964,161.276 203.972,160.733 202.208,147.854 
		199.358,149.401 201.265,163.285 	"/>
</g>
</svg>
